# xmcd
#
# Track frame offsets:
#	150
#	37744
#	76984
#	137426
#	197348
#	226996
#	272261
#
# Disc length: 4348 seconds
#
# Revision: 0
# Processed by: cddbd v1.5.1PL2 Copyright (c) Steve Scherf et al.
# Submitted via: audiograbber 1.83.01
#
DISCID=4410fa07
DTITLE=Cosmic Dust Fusion Band - Journey
DYEAR=1993
DGENRE=Fusion
TTITLE0=Lickin' Anna Slickin'
TTITLE1=Colors
TTITLE2=Journey
TTITLE3=Rosario
TTITLE4=Spiritus
TTITLE5=The Night Watchman
TTITLE6=Bones For Dog
EXTD=
EXTT0=
EXTT1=
EXTT2=
EXTT3=
EXTT4=
EXTT5=
EXTT6=
PLAYORDER=
